<?xml version="1.0" encoding="utf-8"?>
<!-- Generator: Adobe Illustrator 19.2.0, SVG Export Plug-In . SVG Version: 6.00 Build 0)  -->
<svg version="1.1" xmlns="http://www.w3.org/2000/svg" xmlns:xlink="http://www.w3.org/1999/xlink" x="0px" y="0px"
	 viewBox="0 0 1024 704" style="enable-background:new 0 0 1024 704;" xml:space="preserve">
<style type="text/css">
	.st0{display:none;}
	.st1{display:inline;}
	.st2{fill:#90C66D;}
	.st3{display:inline;fill:#739E57;}
	.st4{display:inline;fill:#C5DB8F;}
	.st5{display:inline;fill:#63504B;}
	.st6{display:none;fill:#8E8E8E;}
	.st7{fill:#FFFFFF;}
	.st8{display:inline;fill:#FFFFFF;}
	.st9{display:none;fill:#FFFFFF;}
	.st10{fill:#EFCA6F;}
	.st11{fill:#7E847A;}
</style>
<g id="svg4623" inkscape:version="0.91 r13725" sodipodi:docname="background.svg" xmlns:cc="http://creativecommons.org/ns#" xmlns:dc="http://purl.org/dc/elements/1.1/" xmlns:inkscape="http://www.inkscape.org/namespaces/inkscape" xmlns:rdf="http://www.w3.org/1999/02/22-rdf-syntax-ns#" xmlns:sodipodi="http://sodipodi.sourceforge.net/DTD/sodipodi-0.dtd" xmlns:svg="http://www.w3.org/2000/svg" class="st0">
	
		<sodipodi:namedview  bordercolor="#666666" borderopacity="1" gridtolerance="10" guidetolerance="10" id="namedview435" inkscape:current-layer="horizon" inkscape:cx="511.73096" inkscape:cy="469.18648" inkscape:pageopacity="0" inkscape:pageshadow="2" inkscape:window-height="761" inkscape:window-maximized="0" inkscape:window-width="1252" inkscape:window-x="283" inkscape:window-y="83" inkscape:zoom="13.752648" objecttolerance="10" pagecolor="#ffffff" showgrid="false" showguides="false">
		</sodipodi:namedview>
	<title  id="title7">dashboard illustrations SVG</title>
	<g id="horizon" transform="matrix(0.21144453,0,0,0.20991805,-17.686527,-185.70606)" class="st1">
		<rect id="grass" x="-107.9" y="2089.8" class="st2" width="5202.3" height="660"/>
		<g id="tree" class="st0">
			<ellipse id="ellipse57" class="st3" cx="2451" cy="2088.9" rx="9.7" ry="3.6"/>
			<path id="path55" inkscape:connector-curvature="0" class="st4" d="M2455.7,2077.5h-8.7c-5.4,0-9-5.5-6.8-10.4l11.2-20.2
				l11.2,20.2C2464.6,2072,2461,2077.5,2455.7,2077.5z"/>
			<path id="rect59" class="st5" d="M2450.8,2065.3h0.5c1.4,0,2.5,1.1,2.5,2.5v19.9c0,1.4-1.1,2.5-2.5,2.5h-0.5
				c-1.4,0-2.5-1.1-2.5-2.5v-19.9C2448.2,2066.4,2449.4,2065.3,2450.8,2065.3z"/>
			<path id="path61" inkscape:connector-curvature="0" class="st3" d="M2454,2074.3h-5.3c-3.3,0-5.5-3.3-4.2-6.3l6.8-12.3l6.8,12.3
				C2459.4,2071,2457.2,2074.3,2454,2074.3z"/>
		</g>
		<g id="road" transform="translate(-11.823418,438.26636)">
			<polygon id="polygon79" class="st6" points="872.8,2070 3956.9,2070 2463.3,1651.5 2463.3,1651.5 			"/>
			<g id="dotted_line" class="st0">
				<polygon id="polygon89" class="st7" points="2466.7,1664.7 2458.8,1664.8 2458.8,1664.8 2460.1,1661.1 2465.7,1660.9 				"/>
				<polygon id="polygon85" class="st8" points="2471.2,1682 2453,1681.8 2453,1681.8 2447.7,1697.6 2475.1,1697 				"/>
				<polygon id="polygon87" class="st8" points="2467.5,1667.9 2457.6,1668.3 2457.6,1668.3 2455.5,1674.6 2469.2,1674.2 				"/>
				<polygon id="polygon91" class="st8" points="2464,1654.2 2462.3,1654.4 2462.3,1654.4 2461.2,1657.8 2464.8,1657.5 				"/>
				<polygon id="polygon81" class="st8" points="2527.3,1898.6 2527.3,1898.6 2561.3,2030 2335.3,2030 2380.4,1896.7 				"/>
				<polygon id="polygon83" class="st8" points="2515.3,1852.3 2515.3,1852.3 2495,1774.1 2421.8,1774.4 2395.2,1852.8 				"/>
				<polygon id="polygon93" class="st8" points="2431.6,1745.3 2431.6,1745.3 2443.4,1710.3 2478.5,1710.2 2487.2,1744 				"/>
			</g>
			<g id="stripes1" transform="matrix(1.1303238,0,0,1.1303238,2318.5727,1651.5193)" class="st0">
				<polygon id="polygon34" class="st8" points="226,375.8 0,375.8 45.1,242.5 192,244.4 192,244.4 				"/>
				<polygon id="polygon36" class="st8" points="159.7,119.9 86.4,120.1 59.9,198.6 180,198.1 180,198.1 				"/>
				<polygon id="polygon38" class="st8" points="112.4,43.4 139.7,42.8 135.8,27.8 117.7,27.6 117.7,27.6 				"/>
				<polygon id="polygon40" class="st8" points="120.1,20.4 133.8,20 132.2,13.7 122.3,14.1 122.3,14.1 				"/>
				<polygon id="polygon42" class="st8" points="124.7,6.9 130.4,6.7 131.3,10.5 123.5,10.6 123.5,10.6 				"/>
				<polygon id="polygon44" class="st8" points="125.8,3.6 129.5,3.3 128.6,0 127,0.2 127,0.2 				"/>
				<polygon id="polygon46" class="st8" points="108.1,56 143.1,56 151.9,89.8 96.2,91.1 96.2,91.1 				"/>
			</g>
			<g id="stripes2" transform="matrix(1.1103268,0,0,1.1103268,2320.773,1651.5234)">
				<polygon id="polygon49" class="st9" points="120.8,18.3 120.1,20.4 117.7,27.6 116.6,30.8 136.6,30.8 136.6,30.8 135.8,27.8 
					133.8,20 133.4,18.3 				"/>
				<polygon id="polygon51" class="st9" points="114.1,38.3 112.4,43.4 108.1,56 105,65.3 145.5,65.3 145.5,65.3 143.1,56 
					139.7,42.8 138.5,38.3 				"/>
				<polygon id="polygon53" class="st9" points="86.4,120.1 79.8,139.8 164.8,139.8 159.7,119.9 151.9,89.8 151.9,89.8 149.7,81.3 
					99.6,81.3 96.2,91.1 				"/>
				<polygon id="polygon55" class="st9" points="192,244.4 180,198.1 173.7,173.8 68.3,173.8 59.9,198.6 59.9,198.6 45.1,242.5 
					33.8,275.8 200.1,275.8 				"/>
				<polygon id="polygon57" class="st9" points="123.8,9.6 123.5,10.6 122.3,14.1 121.9,15.3 132.6,15.3 132.6,15.3 132.2,13.7 
					131.3,10.5 131.1,9.6 				"/>
				<polygon id="polygon59" class="st9" points="17.2,324.8 17.2,324.8 0,375.8 226,375.8 212.8,324.8 				"/>
				<polygon id="polygon61" class="st9" points="127,0.2 125.8,3.6 124.7,6.9 124.4,7.7 130.6,7.7 130.6,7.7 130.4,6.7 129.5,3.3 
					128.6,0 				"/>
			</g>
		</g>
	</g>
</g>
<g id="Layer_2">
	<image style="overflow:visible;" width="1024" height="704" xlink:href="background1.png" >
	</image>
	<g id="Layer_3">
		<path class="st10" d="M842.3,219.7c2-1.8,2.1-2.4,4.3-4.7c1.8-1.8,1.7-1.4,3.7-3.3c1.9-1.9,2.1-2.4,4-4.3c1.6-1.6,1.6-1.3,3.7-3.3
			c2.8-2.6,4.2-3.9,5-5.3c1.6-2.6,1.5-4.4,2.7-4.7c1.1-0.2,1.5,1.2,3.3,1.3c1.7,0.2,3-0.9,3.7-1.3c1.6-1.2,2.2-2.6,2.7-3.7
			c0.8-1.7,0.3-1.9,1-3.7c0.9-2.3,1.7-2.1,2.7-4.7c0.3-0.7,0.5-1.5,1-3.1c0.4-1.2,0.4-1.3,0.7-2.3c0.8-2.5,1.1-3.3,1-3.3
			c-0.3-0.2-1.7,3.9-5.7,6.3c-1.7,1.1-4.7,2.3-4.7,2.3c0,0-1.9-2.1-1.7-4c0.1-1.1,0.9-1.1,2-3c0.4-0.6,1.1-1.8,1.3-3.3
			c0.3-1.8-0.1-3.3-0.7-5c-0.1-0.4-0.7-2.2-2-4.3c-0.8-1.4-1-1.3-2.7-3.7c-1.2-1.6-2-3-2.7-4c-1.8-2.8-1.6-2.8-2.7-4.3
			c-1.6-2.2-2-2.3-3-4c-1.1-1.8-0.7-1.9-1.7-3.7c0,0-0.7-1.3-4.3-5.3c0,0-1.2-1.5-2.2-2.9c-1.4-2-1.6-2.5-1.8-2.4c-0.7,0.2,1,7,1,7
			c0,0,1.3,2.6,2.7,5.3c1.4,2.8,1.5,2.9,2,4c0.5,1.3,0.6,1.5,1.3,3.3c0.8,1.9,1.2,2.8,1.7,3.7c1.4,2.4,3.1,3.6,3,3.7
			c-0.1,0.2-4.7-3.1-9.7-7.7c-1.5-1.4-2.5-2.4-4.3-3.7c-1.5-1.1-1.9-1.1-5-3c-1-0.6-2.7-1.6-4.7-3c-1.6-1.1-3-2-4.7-3.3
			c-2.8-2.2-2.4-2.3-4.3-3.7c-2.9-2.1-3.6-1.7-6-3.7c-1.9-1.5-1.5-1.8-3.3-3.3c-2.6-2.1-3.4-1.6-6-3.7c-0.9-0.7-2-1.9-4.3-4.3
			c0,0-0.6-0.6-3.7-4c0,0-0.3-0.3-0.3-0.3c-0.7-0.7-1.8-2.5-2.3-2.3c-0.7,0.2-0.2,3.9,0,5.7c0.2,1.6,0.3,2.5,0.7,3.3
			c0,0,0.3,0.7,2,3.3c0,0,1.4,2.9,0.7,3.7c-0.7,0.7-3-0.4-4-1c-1.3-0.8-2.1-1.7-3-2.7c-0.6-0.6-0.8-0.9-2.3-3
			c-2.1-2.8-2.4-3.1-2.7-3c-0.8,0.2-0.3,2.4-1.3,6c-0.7,2.3-1.1,2.4-2,5.3c-0.6,1.9-0.8,3.4-1,4.3c-0.1,0.7-0.4,2.2-0.7,7.7
			c-0.2,4.4-0.1,4.3-0.3,5.7c-0.4,2.5-0.8,2.8-1.3,6c-0.2,1.4-0.5,2.9-0.7,5c-0.2,3.1,0,4.3-0.7,4.7c-0.9,0.4-2.6-1.2-3.3-2
			c-0.3-0.3-1.6-1.6-2.3-3.7c-0.2-0.6-0.4-1.2-0.5-1.6c-0.3-1.1-0.4-1.9-0.5-2.4c-0.5-2.6-0.7-3.9-1-4c-0.8-0.1-3.5,4.7-2.3,9
			c0.4,1.6,0.9,1.5,1.3,3.3c0.7,3,0,6.3,0,6.3c-0.5-1.7,0.6,3.9,2,5c1.3,1,3.7,1,3.7,1c3.7-2.3,4-2,4-2c0.6,0.4-0.8,2.1-1.3,5.3
			c-0.1,0.7-0.6,3.8,0.3,7.3c0.2,0.8,0.7,2,1.7,4.3c1.1,2.7,1.2,2.7,1.7,4c0.9,2.8,0.4,3,1.3,5c0,0,0.2,0.5,2,3.7c0,0,0.9,2.5,2,5
			c0.8,1.8,1.5,3,1.7,3.3c0.6,1.1,1.3,2.3,2.3,3.7c0.6,0.8,1.4,1.7,3,3.3c1.6,1.7,2.4,2.6,3,3c1,0.8,2.1,1.3,4.3,2.3
			c2.2,1,4.7,2,4.7,2c0,0,3.1,1.1,6.3,1c2-0.1,4.3-0.7,4.3-0.7c3.7-0.2,6.3-0.3,6.3-0.3c4.3-0.3,4.8-0.4,5.3-0.7
			c0.4-0.2,0.6-0.3,3.7-2.7C841.2,220.6,842.1,219.9,842.3,219.7z"/>
		<path class="st10" d="M232,241.5c1.7,0,4.3,0,7.5,0c7,0,6.8,0,8,0c6-0.2,6.6-0.6,11-0.5c3,0.1,2.6,0.3,6.5,0.5
			c2.9,0.1,3.8,0,9.5,0c7,0,6,0.1,8.5,0c3.3-0.2,5.3-0.4,9.5-0.5c4.7-0.1,5.2,0.2,5.5,0.5c1.2,1.1,1.2,3.1-1.5,13.5
			c-1.2,4.6-1.8,7-3,11c-2.1,7.1-2.7,7.6-3.5,11.5c-0.6,2.7-0.4,2.8-1.5,10c-1.5,9.7-1.9,10.4-2.5,11c-1.7,1.7-6,1.8-14.5,2
			c-3.6,0.1-6.4,0-8.5,0c-7-0.1-14-0.5-14-0.5l0,0c-2.8,0.6-4.2,0.1-5-0.5c-2.6-1.9-1.3-5.9-3-15c-0.1-0.5-0.6-2.5-1.5-6.5
			c-1.4-6-1.6-6.5-2.5-10.5c-1.2-5.3-1.2-5.7-2-9c-1-3.9-1.9-7-2.5-9"/>
	</g>
	<g id="Layer_4">
		<path class="st11" d="M64.3,80.8c2.2-4.2,2-5,4.6-10.8c2.5-5.7,3.8-8.6,5.8-11.5c4.3-6.2,9.4-9.7,11.6-11.3
			c3.4-2.3,6.2-3.6,8.9-4.8c3.6-1.6,8.3-3.7,14.7-4.8c5.8-1,10.3-0.7,14.2-0.5c2.5,0.1,5.1,0.3,8.6,1c6,1.2,10.4,3.2,11.9,4
			c2.8,1.4,4.6,2.6,8.1,5c3.2,2.2,5.3,3.6,7.8,6c0.8,0.8,3.5,3.3,6.3,7.3c1.6,2.2,4.2,6.2,6.3,11.8c1.8,4.8,2.4,8.5,3,12
			c0.8,4.5,1.4,8.4,1,13.5c-0.4,5.1-1.6,8.7-2.8,12.5c-0.9,2.9-2.4,7.4-5.3,12.5c-2.1,3.7-6.3,10.9-14.4,16.8
			c-3.7,2.7-8,4.4-16.4,7.8c-7.2,2.9-10.9,4.3-16.2,4.8c-5.6,0.5-10.1-0.4-13.2-1c-1.7-0.3-6.8-1.4-12.9-4.3
			c-4.5-2.1-7.6-4.2-9.9-5.8c-2.7-1.8-5.2-3.6-8.1-6.5c-3.6-3.6-5.7-6.9-6.3-8c-1.4-2.4-1.2-2.5-3.8-7.8c-3.5-7.1-3.9-6.7-4.8-9.5
			c-0.7-2.2-1-5-1.5-10.5c-0.4-3.6-0.4-5.4-0.3-7.3c0.2-3.3,0.8-5.4,1-6C62.9,83.3,63.7,81.8,64.3,80.8z"/>
		<g id="Layer_5">
		</g>
		<path class="st7" d="M72.2,82.7c1.9-3.6,1.7-4.3,3.9-9.2c2.2-4.9,3.3-7.4,5-9.9c3.7-5.3,8-8.4,10-9.7c2.9-2,5.3-3.1,7.6-4.1
			c3.1-1.4,7.1-3.2,12.5-4.1c4.9-0.8,8.8-0.6,12.1-0.4c2.2,0.1,4.4,0.3,7.4,0.9c5.2,1.1,8.9,2.8,10.2,3.4c2.4,1.2,3.9,2.2,6.9,4.3
			c2.7,1.9,4.5,3.1,6.7,5.2c0.7,0.7,3,2.9,5.4,6.2c1.4,1.9,3.6,5.3,5.4,10.1c1.6,4.1,2.1,7.3,2.6,10.3c0.6,3.9,1.2,7.2,0.9,11.6
			c-0.3,4.3-1.3,7.5-2.4,10.7c-0.8,2.5-2.1,6.3-4.5,10.7c-1.8,3.2-5.4,9.4-12.3,14.4c-3.2,2.3-6.8,3.8-14.1,6.7
			c-6.2,2.5-9.3,3.7-13.8,4.1c-4.8,0.4-8.7-0.3-11.3-0.9c-1.4-0.3-5.8-1.2-11-3.7c-3.9-1.8-6.5-3.6-8.4-4.9
			c-2.3-1.6-4.4-3.1-6.9-5.6c-3.1-3.1-4.9-6-5.4-6.9c-1.2-2-1-2.1-3.2-6.7c-3-6.1-3.3-5.8-4.1-8.2c-0.6-1.9-0.8-4.3-1.3-9
			c-0.3-3.1-0.3-4.7-0.2-6.2c0.2-2.8,0.7-4.7,0.9-5.2C71.1,84.9,71.8,83.6,72.2,82.7z"/>
	</g>
</g>
</svg>
